<svg xmlns="http://www.w3.org/2000/svg" viewBox="0 0 687.05 95.55">
    <defs>
        <style>
            @media (prefers-color-scheme: light) {
                .cls-1 {
                    fill: #fdb924;
                }

                .cls-2 {
                    fill: #2c1b5d;
                }
            }
            @media (prefers-color-scheme: dark) {
                .cls-1 {
                    fill: #fdb924;
                }

                .cls-2 {
                    fill: #fff;
                }
            }
        </style>
    </defs>
    <g id="Layer_1" data-name="Layer 1">
        <path class="cls-1" d="M92.94,24.85a52.33,52.33,0,0,0,0,95.55,87.06,87.06,0,0,1,0-95.55"
            transform="translate(-17.77 -24.85)" />
        <path class="cls-1" d="M48.75,24.85a52.33,52.33,0,0,0,0,95.55,87,87,0,0,1,0-95.55"
            transform="translate(-17.77 -24.85)" />
        <path class="cls-1" d="M629.66,24.85a52.33,52.33,0,0,1,0,95.55,87.06,87.06,0,0,0,0-95.55"
            transform="translate(-17.77 -24.85)" />
        <path class="cls-1" d="M673.85,24.85a52.33,52.33,0,0,1,0,95.55,87,87,0,0,0,0-95.55"
            transform="translate(-17.77 -24.85)" />
        <path class="cls-2"
            d="M604.67,96a42.76,42.76,0,0,1-15.06,2.58c-15.88,0-25.27-10-25.27-25.87,0-17.76,11-26.34,25.16-26.34a38,38,0,0,1,15,2.94l3.76-14.11c-3.18-1.65-10.22-3.53-19.52-3.53-24,0-43.28,14.93-43.28,42,0,22.7,14.12,39.86,41.52,39.86,9.52,0,17.05-1.87,20.23-3.42Zm-98.23,16.23h17.87V33H506.44ZM445,46.4a35.71,35.71,0,0,1,8.11-.59c8.23,0,13.17,3.77,13.17,10.94,0,6.93-5.29,11.41-14.23,11.41H445Zm-17.76,65.86H445V81.09h5.29c7.4.13,10.82,2.71,13.06,12.7,2.22,9.76,4.23,16.23,5.4,18.47h18.34c-1.52-3.06-3.87-13.41-6.34-22.46-2-7.3-5.06-12.47-10.58-14.7v-.36c6.82-2.47,14-9.4,14-19.41,0-7.28-2.59-12.81-7.41-16.57-5.65-4.59-13.88-6.36-25.64-6.36a140.43,140.43,0,0,0-23.87,1.77Zm-58.36,0h17.88V48.05h21.63V33H347.49v15H368.9Zm-89.41,0V88.38c0-12.93-.23-24.11-.82-34.69h.47a278.36,278.36,0,0,0,13.76,28l16.94,30.58h18.81V33H312.18V56a323.85,323.85,0,0,0,1.42,33.17h-.25A249.44,249.44,0,0,0,300.43,62L284,33H263v79.26Zm-41.43-48.1H208.9V47.69h30.92V33H191v79.26h50.45V97.56H208.9V78.74h29.16ZM167.12,96a42.67,42.67,0,0,1-15.06,2.58c-15.86,0-25.28-10-25.28-25.87,0-17.76,11.06-26.34,25.16-26.34A37.84,37.84,0,0,1,167,49.34l3.78-14.11c-3.18-1.65-10.23-3.53-19.52-3.53-24,0-43.28,14.93-43.28,42,0,22.7,14.11,39.86,41.5,39.86,9.53,0,17.06-1.87,20.24-3.42Z"
            transform="translate(-17.77 -24.85)" />
    </g>
</svg>